<svg width="46" height="45" viewBox="0 0 46 45" fill="none" xmlns="http://www.w3.org/2000/svg">
<path d="M23.6256 43.984C8.79512 43.984 4.83266 28.5242 6.62378 18.3949C6.70174 17.9541 7.27962 17.8271 7.53143 18.1973C8.31119 19.3434 9.00509 20.9988 10.1548 20.8551C11.8828 20.639 13.08 5.39107 23.3214 1.10069C23.6464 0.964551 23.9865 1.22286 23.9508 1.57337C23.4444 6.54209 26.4276 13.6555 31.7129 13.6555C34.7427 13.6555 36.8157 11.2375 37.8516 8.80905C38.1662 8.07139 39.244 8.16438 39.4245 8.94581C41.2729 16.9511 46.214 43.984 23.6256 43.984Z" fill="#FF8F1F"/>
<path d="M18.4265 29.0766C18.7753 28.7836 19.3047 28.9847 19.3839 29.4333C19.5692 30.483 20.1785 32.2869 22.1769 32.2869C24.5809 32.2869 26.2123 25.6719 26.6402 23.7264C26.7106 23.4063 27.0225 23.189 27.3437 23.2543C33.3514 24.4758 36.2725 43.984 23.0631 43.984C13.4468 43.984 15.6254 31.4298 18.4265 29.0766ZM34.8428 7.95008C35.0546 6.29404 32.0315 10.8235 32.0315 10.8235C32.0315 10.8235 34.3362 11.9121 34.8428 7.95008ZM4.38223 32.6475C4.44595 31.9425 3.53901 30.055 3.37843 30.8023C2.99409 32.5904 4.31851 33.3526 4.38223 32.6475Z" fill="#FFB636"/>
<path d="M28.5709 30.6384C28.3456 29.6989 27.5377 31.8812 27.6392 32.7701C27.7408 33.6589 29.1097 32.8863 28.5709 30.6384Z" fill="#FFD469"/>
</svg>
