<svg width="46" height="45" viewBox="0 0 46 45" fill="none" xmlns="http://www.w3.org/2000/svg">
<path d="M32.2377 40.4521L31.9141 44.282H14.7528L14.4292 40.4521H32.2377Z" fill="#8E4238"/>
<path d="M33.5149 25.3398L32.2377 40.4522H14.4292L13.152 25.3398C14.1545 24.9856 14.4522 24.1028 15.9305 24.1028C17.7812 24.1028 17.7812 25.4863 19.632 25.4863C21.4828 25.4863 21.4827 24.1028 23.3335 24.1028C25.1842 24.1028 25.1842 25.4863 27.035 25.4863C28.8857 25.4863 28.8857 24.1028 30.7365 24.1028C32.2148 24.1029 32.5125 24.9856 33.5149 25.3398Z" fill="#C67741"/>
<path d="M34.1048 18.3582L33.515 25.3398C32.5125 24.9855 32.2148 24.1028 30.7365 24.1028C28.8858 24.1028 28.8858 25.4863 27.035 25.4863C25.1843 25.4863 25.1843 24.1028 23.3335 24.1028C21.4827 24.1028 21.4828 25.4863 19.632 25.4863C17.7812 25.4863 17.7813 24.1028 15.9305 24.1028C14.4522 24.1028 14.1544 24.9855 13.152 25.3398L12.5623 18.3582H34.1048Z" fill="#F9EBDB"/>
<path d="M35.5408 15.4856H11.126V18.3579H35.5408V15.4856Z" fill="#E8D6BD"/>
<path d="M30.6015 15.4857H15.874C15.874 13.5028 17.4815 11.8953 19.4644 11.8953C19.5497 11.8953 19.6339 11.8992 19.7172 11.9049C20.0465 10.261 21.4971 9.02295 23.2378 9.02295C24.9784 9.02295 26.4289 10.2609 26.7583 11.9049C26.8416 11.8992 26.9258 11.8953 27.0111 11.8953C28.994 11.8953 30.6015 13.5029 30.6015 15.4857Z" fill="white"/>
<path d="M23.2377 5.50537V9.02302C21.497 9.02302 20.0466 10.261 19.7171 11.905C19.6338 11.8992 19.5496 11.8954 19.4644 11.8954C17.4815 11.8954 15.874 13.5029 15.874 15.4858H12.4664C12.4664 10.9723 15.243 7.10814 19.18 5.50537H23.2377Z" fill="#F9EBDB"/>
<path d="M34.0089 15.4858H30.6014C30.6014 13.5029 28.9939 11.8954 27.011 11.8954C26.9257 11.8954 26.8415 11.8992 26.7582 11.905C26.4289 10.261 24.9783 9.02302 23.2377 9.02302V5.50537H27.2953C31.2324 7.10814 34.0089 10.9724 34.0089 15.4858Z" fill="#F9EBDB"/>
<path d="M15.9302 24.8207C16.6168 24.8207 16.9247 25.0509 17.3509 25.3695C17.8483 25.7415 18.4675 26.2043 19.6316 26.2043C20.7956 26.2043 21.4148 25.7415 21.9123 25.3695C22.3384 25.0509 22.6463 24.8207 23.3329 24.8207C24.0196 24.8207 24.3276 25.0509 24.7538 25.3695C25.2513 25.7415 25.8705 26.2043 27.0347 26.2043C28.199 26.2043 28.818 25.7415 29.3156 25.3695C29.7419 25.0509 30.0499 24.8207 30.7366 24.8207C31.1331 24.8207 31.4546 24.4992 31.4546 24.1026C31.4546 23.706 31.1331 23.3845 30.7366 23.3845C29.5723 23.3845 28.9533 23.8474 28.4556 24.2193C28.0294 24.5379 27.7214 24.7682 27.0347 24.7682C26.348 24.7682 26.04 24.5379 25.6138 24.2193C25.1163 23.8474 24.4971 23.3845 23.3328 23.3845C22.1686 23.3845 21.5496 23.8474 21.0521 24.2193C20.6259 24.5379 20.318 24.7682 19.6314 24.7682C18.9448 24.7682 18.6369 24.5379 18.2107 24.2193C17.7133 23.8474 17.0941 23.3845 15.93 23.3845C15.5334 23.3845 15.2119 23.706 15.2119 24.1026C15.2119 24.4992 15.5336 24.8207 15.9302 24.8207Z" fill="#700D00"/>
<path d="M35.5409 14.7674H34.7051C34.4348 10.3669 31.6931 6.51973 27.5655 4.84022C27.4796 4.80524 27.3876 4.78731 27.2948 4.78731H23.9557V2.15429C23.9557 1.75825 24.2778 1.43622 24.6738 1.43622H28.9822C29.3788 1.43622 29.7003 1.11472 29.7003 0.718154C29.7003 0.321592 29.379 0 28.9824 0H24.6739C23.486 0 22.5196 0.966357 22.5196 2.15429V4.78723H19.1806C19.0878 4.78723 18.9959 4.80524 18.9099 4.84014C14.7825 6.51973 12.0407 10.3668 11.7704 14.7673H11.126C10.7295 14.7673 10.408 15.0888 10.408 15.4854V18.3577C10.408 18.7543 10.7295 19.0758 11.126 19.0758H11.9022L13.7148 40.5249C13.7149 40.5257 14.0374 44.3422 14.0374 44.3422C14.0688 44.7141 14.3798 44.9999 14.7529 44.9999H31.9139C32.287 44.9999 32.598 44.7141 32.6294 44.3422L34.7647 19.0758H35.5408C35.9374 19.0758 36.2589 18.7543 36.2589 18.3577V15.4855C36.259 15.0889 35.9375 14.7674 35.5409 14.7674ZM19.3235 6.22345H22.5196V8.36569C20.9817 8.62682 19.6893 9.71121 19.1714 11.1869C17.1725 11.3218 15.5443 12.8265 15.2171 14.7675H13.2096C13.4746 10.9998 15.811 7.7081 19.3235 6.22345ZM23.2377 9.74074C24.6022 9.74074 25.7865 10.7102 26.0538 12.0458C26.1247 12.4 26.4478 12.6462 26.8079 12.6212C26.8873 12.6156 26.9517 12.613 27.0109 12.613C28.3468 12.613 29.4727 13.5298 29.7923 14.7673H16.683C17.0027 13.5298 18.1284 12.613 19.4645 12.613C19.5236 12.613 19.5881 12.6156 19.6674 12.6212C20.0273 12.6461 20.3508 12.3998 20.4215 12.0458C20.6889 10.7102 21.8733 9.74074 23.2377 9.74074ZM31.254 43.5639H15.4129L15.2106 41.1703H29.3652C29.7617 41.1703 30.0832 40.8488 30.0832 40.4522C30.0832 40.0556 29.7617 39.7341 29.3652 39.7341H15.0893L13.3435 19.076H33.3235L31.254 43.5639ZM34.8228 17.6397H34.0924C34.0911 17.6397 11.8441 17.6397 11.8441 17.6397V16.2036H31.1366C31.5332 16.2036 31.8547 15.8821 31.8547 15.4855C31.8547 15.1312 31.5978 14.8375 31.2602 14.7788C30.9375 12.8324 29.3066 11.3221 27.3038 11.1869C26.786 9.71121 25.4935 8.62682 23.9556 8.36569V6.22345H27.1517C30.8858 7.80179 33.2907 11.4222 33.2907 15.4855C33.2907 15.8821 33.6122 16.2036 34.0088 16.2036H34.8227V17.6397H34.8228Z" fill="#700D00"/>
</svg>
