<svg width="41" height="39" viewBox="0 0 41 39" fill="none" xmlns="http://www.w3.org/2000/svg">
<rect width="41" height="39" rx="10" fill="#E93A3D"/>
<path d="M20.06 16.86C20.06 17.6067 19.88 18.3067 19.52 18.96C19.1733 19.6133 18.62 20.14 17.86 20.54C17.1133 20.94 16.1667 21.14 15.02 21.14H12.68V26.5H9.88V12.54H15.02C16.1 12.54 17.02 12.7267 17.78 13.1C18.54 13.4733 19.1067 13.9867 19.48 14.64C19.8667 15.2933 20.06 16.0333 20.06 16.86ZM14.9 18.88C15.6733 18.88 16.2467 18.7067 16.62 18.36C16.9933 18 17.18 17.5 17.18 16.86C17.18 15.5 16.42 14.82 14.9 14.82H12.68V18.88H14.9ZM30.188 12.54V22.34C30.188 23.7 29.7946 24.76 29.008 25.52C28.2213 26.2667 27.168 26.64 25.848 26.64C24.5146 26.64 23.4346 26.2533 22.608 25.48C21.7946 24.7067 21.388 23.6267 21.388 22.24H24.188C24.2013 22.84 24.3413 23.3067 24.608 23.64C24.888 23.9733 25.288 24.14 25.808 24.14C26.3146 24.14 26.7013 23.98 26.968 23.66C27.2346 23.34 27.368 22.9 27.368 22.34V12.54H30.188Z" fill="white"/>
</svg>
