<svg width="46" height="45" viewBox="0 0 46 45" fill="none" xmlns="http://www.w3.org/2000/svg">
<path d="M34.6088 43.2838C34.1038 43.2838 33.6013 43.1288 33.1688 42.82L23 35.5275L12.8313 42.82C12.41 43.1231 11.9037 43.2854 11.3847 43.2836C10.8656 43.2818 10.3605 43.1161 9.94128 42.81C9.52168 42.5058 9.20872 42.077 9.04691 41.5846C8.88511 41.0922 8.8827 40.5614 9.04003 40.0675L12.8325 27.8275L2.75503 20.7263C2.33738 20.4181 2.02721 19.9863 1.86839 19.4922C1.70957 18.998 1.71014 18.4664 1.87003 17.9725C2.03117 17.4799 2.34306 17.0504 2.76161 16.7446C3.18017 16.4389 3.68422 16.2725 4.20253 16.2688L16.6838 16.25L20.6575 4.31379C20.8215 3.82208 21.136 3.39441 21.5566 3.09136C21.9771 2.78831 22.4823 2.62524 23.0007 2.62524C23.519 2.62524 24.0242 2.78831 24.4447 3.09136C24.8653 3.39441 25.1798 3.82208 25.3438 4.31379L29.25 16.25L41.795 16.2688C42.314 16.2717 42.8188 16.4381 43.2377 16.7443C43.6567 17.0505 43.9685 17.4809 44.129 17.9744C44.2894 18.4679 44.2902 18.9995 44.1313 19.4935C43.9724 19.9875 43.6618 20.4188 43.2438 20.7263L33.1663 27.8275L36.9588 40.0675C37.1164 40.5612 37.1143 41.0921 36.9527 41.5845C36.7911 42.0769 36.4783 42.5058 36.0588 42.81C35.6383 43.1185 35.1303 43.2845 34.6088 43.2838Z" fill="#FFAC33"/>
</svg>
